<mxfile host="Electron" modified="2024-08-01T13:36:56.631Z" agent="Mozilla/5.0 (X11; Linux x86_64) AppleWebKit/537.36 (KHTML, like Gecko) draw.io/24.6.4 Chrome/124.0.6367.207 Electron/30.0.6 Safari/537.36" etag="8D_Xu65AgPCMubTFJ_M5" version="24.6.4" type="device">
  <diagram name="Page-1" id="Dhrb7pna22GzQtNqCdh7">
    <mxGraphModel dx="2004" dy="2030" grid="1" gridSize="10" guides="1" tooltips="1" connect="1" arrows="1" fold="1" page="1" pageScale="1" pageWidth="1169" pageHeight="827" math="0" shadow="0">
      <root>
        <mxCell id="0" />
        <mxCell id="1" parent="0" />
        <mxCell id="I5mjCQqSu9rGNLek1Kef-42" style="edgeStyle=orthogonalEdgeStyle;rounded=1;orthogonalLoop=1;jettySize=auto;html=1;curved=0;strokeWidth=9;strokeColor=#6788B8;startArrow=classicThin;startFill=1;endArrow=classicThin;endFill=1;" parent="1" edge="1">
          <mxGeometry relative="1" as="geometry">
            <mxPoint x="823" y="321" as="sourcePoint" />
            <mxPoint x="730" y="255" as="targetPoint" />
            <Array as="points">
              <mxPoint x="823" y="255" />
            </Array>
          </mxGeometry>
        </mxCell>
        <mxCell id="I5mjCQqSu9rGNLek1Kef-43" style="edgeStyle=orthogonalEdgeStyle;rounded=1;orthogonalLoop=1;jettySize=auto;html=1;curved=0;strokeWidth=9;strokeColor=#6788B8;startArrow=classicThin;startFill=1;endArrow=classicThin;endFill=1;" parent="1" edge="1">
          <mxGeometry relative="1" as="geometry">
            <mxPoint x="1050" y="320" as="sourcePoint" />
            <mxPoint x="1130" y="255" as="targetPoint" />
            <Array as="points">
              <mxPoint x="1050" y="255" />
            </Array>
          </mxGeometry>
        </mxCell>
        <mxCell id="I5mjCQqSu9rGNLek1Kef-44" style="edgeStyle=orthogonalEdgeStyle;rounded=1;orthogonalLoop=1;jettySize=auto;html=1;curved=0;strokeWidth=9;strokeColor=#6788B8;startArrow=classicThin;startFill=1;endArrow=classicThin;endFill=1;" parent="1" edge="1">
          <mxGeometry relative="1" as="geometry">
            <mxPoint x="820" y="450" as="sourcePoint" />
            <mxPoint x="720" y="525" as="targetPoint" />
            <Array as="points">
              <mxPoint x="820" y="525" />
            </Array>
          </mxGeometry>
        </mxCell>
        <mxCell id="I5mjCQqSu9rGNLek1Kef-45" style="edgeStyle=orthogonalEdgeStyle;rounded=1;orthogonalLoop=1;jettySize=auto;html=1;curved=0;strokeWidth=9;strokeColor=#6788B8;startArrow=classicThin;startFill=1;endArrow=classicThin;endFill=1;" parent="1" edge="1" target="NIiBr6VN-mUPk3h2kAaf-10" source="I5mjCQqSu9rGNLek1Kef-1">
          <mxGeometry relative="1" as="geometry">
            <mxPoint x="939" y="480" as="sourcePoint" />
            <mxPoint x="939" y="620" as="targetPoint" />
            <Array as="points">
              <mxPoint x="930" y="590" />
              <mxPoint x="930" y="590" />
            </Array>
          </mxGeometry>
        </mxCell>
        <mxCell id="I5mjCQqSu9rGNLek1Kef-46" style="edgeStyle=orthogonalEdgeStyle;rounded=1;orthogonalLoop=1;jettySize=auto;html=1;curved=0;strokeWidth=9;strokeColor=#6788B8;startArrow=classicThin;startFill=1;endArrow=classicThin;endFill=1;" parent="1" edge="1">
          <mxGeometry relative="1" as="geometry">
            <mxPoint x="1050" y="450" as="sourcePoint" />
            <mxPoint x="1140" y="525" as="targetPoint" />
            <Array as="points">
              <mxPoint x="1050" y="525" />
            </Array>
          </mxGeometry>
        </mxCell>
        <mxCell id="I5mjCQqSu9rGNLek1Kef-1" value="&lt;b&gt;&lt;font style=&quot;font-size: 50px;&quot;&gt;Cloud&lt;/font&gt;&lt;/b&gt;" style="ellipse;shape=cloud;whiteSpace=wrap;html=1;strokeWidth=6;fillColor=#7EA6E0;strokeColor=#6c8ebf;shadow=1;fontColor=#FFFFFF;" parent="1" vertex="1">
          <mxGeometry x="767.83" y="289" width="327.83" height="190" as="geometry" />
        </mxCell>
        <mxCell id="I5mjCQqSu9rGNLek1Kef-47" style="edgeStyle=orthogonalEdgeStyle;rounded=1;orthogonalLoop=1;jettySize=auto;html=1;entryX=0.5;entryY=0;entryDx=0;entryDy=0;curved=0;strokeWidth=9;strokeColor=#6788B8;startArrow=classicThin;startFill=1;endArrow=classicThin;endFill=1;exitX=0.5;exitY=1;exitDx=0;exitDy=0;" parent="1" edge="1">
          <mxGeometry relative="1" as="geometry">
            <mxPoint x="937.0050000000001" y="213" as="sourcePoint" />
            <mxPoint x="936" y="301" as="targetPoint" />
          </mxGeometry>
        </mxCell>
        <mxCell id="I5mjCQqSu9rGNLek1Kef-48" style="rounded=1;orthogonalLoop=1;jettySize=auto;html=1;exitX=0;exitY=0.5;exitDx=0;exitDy=0;elbow=vertical;strokeWidth=6;startArrow=none;startFill=0;endArrow=classicThin;endFill=1;strokeColor=#7EA6E0;" parent="1" source="I5mjCQqSu9rGNLek1Kef-28" edge="1">
          <mxGeometry relative="1" as="geometry">
            <mxPoint x="603" y="172" as="targetPoint" />
            <mxPoint x="793" y="-24" as="sourcePoint" />
          </mxGeometry>
        </mxCell>
        <mxCell id="I5mjCQqSu9rGNLek1Kef-49" style="rounded=1;orthogonalLoop=1;jettySize=auto;html=1;exitX=1;exitY=0.5;exitDx=0;exitDy=0;elbow=vertical;strokeWidth=6;startArrow=classicThin;startFill=1;endArrow=classicThin;endFill=1;strokeColor=#7EA6E0;" parent="1" source="I5mjCQqSu9rGNLek1Kef-28" edge="1">
          <mxGeometry relative="1" as="geometry">
            <mxPoint x="1240" y="180" as="targetPoint" />
          </mxGeometry>
        </mxCell>
        <mxCell id="I5mjCQqSu9rGNLek1Kef-50" value="&lt;font style=&quot;font-size: 32px;&quot;&gt;Telemetry&lt;/font&gt;" style="text;html=1;align=center;verticalAlign=middle;resizable=0;points=[];autosize=1;strokeColor=none;fillColor=none;fontSize=28;fontStyle=1;fontColor=#6788B8;" parent="1" vertex="1">
          <mxGeometry x="1180" y="50" width="160" height="50" as="geometry" />
        </mxCell>
        <mxCell id="I5mjCQqSu9rGNLek1Kef-51" value="Remote ID" style="text;html=1;align=center;verticalAlign=middle;resizable=0;points=[];autosize=1;strokeColor=none;fillColor=none;fontSize=32;fontStyle=1;fontColor=#6788B8;" parent="1" vertex="1">
          <mxGeometry x="501" y="50" width="180" height="50" as="geometry" />
        </mxCell>
        <mxCell id="I5mjCQqSu9rGNLek1Kef-19" value="&lt;b style=&quot;font-size: 32px;&quot;&gt;&lt;font color=&quot;#ffffff&quot; style=&quot;font-size: 32px;&quot;&gt;UTM Services&lt;/font&gt;&lt;/b&gt;" style="rounded=1;whiteSpace=wrap;html=1;absoluteArcSize=1;arcSize=14;strokeWidth=2;strokeColor=#6c8ebf;fillColor=#7EA6E0;shadow=1;fontSize=32;" parent="1" vertex="1">
          <mxGeometry x="1150" y="451" width="240" height="85" as="geometry" />
        </mxCell>
        <mxCell id="I5mjCQqSu9rGNLek1Kef-20" value="&lt;b style=&quot;font-size: 32px; text-wrap: nowrap;&quot;&gt;&lt;font color=&quot;#ffffff&quot; style=&quot;font-size: 32px;&quot;&gt;LLM Agent&lt;/font&gt;&lt;/b&gt;" style="rounded=0;whiteSpace=wrap;html=1;absoluteArcSize=1;arcSize=14;strokeWidth=2;fillColor=#FF9933;strokeColor=#d79b00;shadow=1;fontSize=32;" parent="1" vertex="1">
          <mxGeometry x="1150" y="536" width="240" height="65" as="geometry" />
        </mxCell>
        <mxCell id="I5mjCQqSu9rGNLek1Kef-16" value="&lt;span style=&quot;font-size: 32px;&quot;&gt;&lt;b style=&quot;font-size: 32px;&quot;&gt;&lt;font color=&quot;#ffffff&quot; style=&quot;font-size: 32px;&quot;&gt;Other UAV Services&lt;/font&gt;&lt;/b&gt;&lt;/span&gt;" style="rounded=1;whiteSpace=wrap;html=1;absoluteArcSize=1;arcSize=14;strokeWidth=2;strokeColor=#6c8ebf;fillColor=#7EA6E0;shadow=1;fontSize=32;" parent="1" vertex="1">
          <mxGeometry x="819" y="569" width="240" height="85" as="geometry" />
        </mxCell>
        <mxCell id="I5mjCQqSu9rGNLek1Kef-17" value="&lt;b style=&quot;font-size: 32px; text-wrap: nowrap;&quot;&gt;&lt;font color=&quot;#ffffff&quot; style=&quot;font-size: 32px;&quot;&gt;LLM Agent&lt;/font&gt;&lt;/b&gt;" style="rounded=0;whiteSpace=wrap;html=1;absoluteArcSize=1;arcSize=14;strokeWidth=2;fillColor=#FF9933;strokeColor=#d79b00;shadow=1;fontSize=32;" parent="1" vertex="1">
          <mxGeometry x="819" y="655" width="240" height="65" as="geometry" />
        </mxCell>
        <mxCell id="I5mjCQqSu9rGNLek1Kef-13" value="&lt;b style=&quot;font-size: 32px;&quot;&gt;&lt;font color=&quot;#ffffff&quot; style=&quot;font-size: 32px;&quot;&gt;Remote ID Service&lt;/font&gt;&lt;/b&gt;" style="rounded=1;whiteSpace=wrap;html=1;absoluteArcSize=1;arcSize=14;strokeWidth=2;strokeColor=#6c8ebf;fillColor=#7EA6E0;shadow=1;fontSize=32;" parent="1" vertex="1">
          <mxGeometry x="465" y="451" width="240" height="85" as="geometry" />
        </mxCell>
        <mxCell id="I5mjCQqSu9rGNLek1Kef-14" value="&lt;b style=&quot;font-size: 32px; text-wrap: nowrap;&quot;&gt;&lt;font color=&quot;#ffffff&quot; style=&quot;font-size: 32px;&quot;&gt;LLM Agent&lt;/font&gt;&lt;/b&gt;" style="rounded=0;whiteSpace=wrap;html=1;absoluteArcSize=1;arcSize=14;strokeWidth=2;fillColor=#FF9933;strokeColor=#d79b00;shadow=1;fontSize=32;" parent="1" vertex="1">
          <mxGeometry x="466" y="536" width="240" height="65" as="geometry" />
        </mxCell>
        <mxCell id="I5mjCQqSu9rGNLek1Kef-28" value="" style="shape=image;verticalLabelPosition=bottom;labelBackgroundColor=default;verticalAlign=top;aspect=fixed;imageAspect=0;image=data:image/svg+xml,PHN2ZyB4bWxucz0iaHR0cDovL3d3dy53My5vcmcvMjAwMC9zdmciIHdpZHRoPSIyMDQ4IiBoZWlnaHQ9IjE0NDgiIHZpZXdCb3g9IjAgMCAyMDQ4IDE0NDgiIGlkPSJzdmcyIiB2ZXJzaW9uPSIxLjEiPiYjeGE7ICAmI3hhOyAgPGRlZnMgaWQ9ImRlZnM0Ii8+JiN4YTsgIDxtZXRhZGF0YSBpZD0ibWV0YWRhdGE3Ij4mI3hhOyAgICAmI3hhOyAgICAgICYjeGE7ICAgICAgICBpbWFnZS9zdmcreG1sJiN4YTsgICAgICAgICYjeGE7ICAgICAgICAmI3hhOyAgICAgICYjeGE7ICAgICYjeGE7ICA8L21ldGFkYXRhPiYjeGE7ICA8ZyBpZD0iZzQzNTMiIHRyYW5zZm9ybT0idHJhbnNsYXRlKDAsLTU1NDkuNDk5NSkiIHN0eWxlPSJkaXNwbGF5OmlubGluZTtvcGFjaXR5OjEiPiYjeGE7ICAgIDxwYXRoIHN0eWxlPSJjb2xvcjojM0E1NjgwO2Rpc3BsYXk6aW5saW5lO292ZXJmbG93OnZpc2libGU7dmlzaWJpbGl0eTp2aXNpYmxlO29wYWNpdHk6MTtmaWxsOiM0NTVBN0E7ZmlsbC1vcGFjaXR5OjE7ZmlsbC1ydWxlOm5vbnplcm87c3Ryb2tlOm5vbmU7c3Ryb2tlLXdpZHRoOjg7c3Ryb2tlLWxpbmVjYXA6cm91bmQ7c3Ryb2tlLWxpbmVqb2luOnJvdW5kO3N0cm9rZS1taXRlcmxpbWl0OjQ7c3Ryb2tlLWRhc2hhcnJheTpub25lO3N0cm9rZS1kYXNob2Zmc2V0OjA7c3Ryb2tlLW9wYWNpdHk6MC41OTYwNzg0MzttYXJrZXI6bm9uZTtlbmFibGUtYmFja2dyb3VuZDphY2N1bXVsYXRlIiBkPSJNIDQwNS42MDkzOCw1NTAuMTY3OTcgQyAxODUuMDMxMTksNTUxLjIyNzg4IDE5Ljg2NDE2MSw2MjcuMzA3NSA4Ljk4MjQyMTksNzMzLjgxNDQ1IDIuODE4NTk4LDc5NC4xMzc2NiA0Ny40NDc3MDQsODU3LjE1MzQ4IDEzMy4wNTA3OCw5MDkgYyA4NS42MDMwOCw1MS44NDY1MSAyMDUuMTY3OTQsODguMjc2NjggMzMyLjM5MjU4LDEwMS4yNzU0IDU2LjM2MjIxLDUuNjYwNCAxMTIuNzI4NSw2LjU2NDkgMTY2LjUxMzY3LDIuNjcxOSAtMzIuNzc5ODQsLTE0Ljg1OTQyIC02OS4xMTk3OSwtMzAuMTYyNzcgLTEwOS4yMTQ4NCwtNDYuNDkwMjcgLTE1Ljg3MzQxLC0wLjU4MDM1IC0zMS44MjEyNSwtMS42NTY4MiAtNDcuNzQ0MTQsLTMuMjIyNjUgLTIwNC4zNzIsLTIwLjg4MDk1IC0zNjIuMDIyNSwtMTE2LjM2MyAtMzUyLjEyMzA1LC0yMTMuMjY1NjMgOC41Mjc1NSwtODMuNDY1OTcgMTM5Ljg4MjY3LC0xNDIuNzA4OTEgMzE0LjEwMTU2LC0xNDEuNjY0MDYgMjQuNDM2MDUsMC4xNDY0OCA0OS4xODQzOCwxLjQ5MTA3IDczLjg3NSw0LjAxMzY3IDIwNC4zNzM2NywyMC44ODEwNiAzNjIuMDI0ODMsMTE2LjM2NDM5IDM1Mi4xMjMwNSwyMTMuMjY3NTggLTQuMDM1MDksMzguNTQzMDUgLTM0LjczNjUyLDczLjI2MiAtODcuMzU5MzgsOTguNzkxMDEgMzIuMjM5MjIsMTAuMDAyMyA2NC43NzU3NSwxOC43NzIwMyA5OC40NTExOCwyNS41ODIwMyA1Ni43NTU0NiwtMzEuOTg2OSA4OS41ODAzMywtNzMuMDk3MzQgOTQuMzE0NDUsLTExOC4xMjEwOSBDIDk3NC41NDQ2OCw3NzEuNTE0NjggOTI5LjkxNTU4LDcwOC40OTg4NSA4NDQuMzEyNSw2NTYuNjUyMzQgNzU4LjcwOTQyLDYwNC44MDU4MyA2MzkuMTQ0NTUsNTY4LjM3NTY1IDUxMS45MTk5Miw1NTUuMzc2OTUgYyAtMzIuMDA2OTMsLTMuMjcwMTQgLTY0LjA4ODY4LC01LjAxMzIgLTk1Ljc2NTYyLC01LjIwMzEyIC0zLjUyODc3LC0wLjAyMTIgLTcuMDQzNjksLTAuMDIyNyAtMTAuNTQ0OTIsLTAuMDA2IHogbSAxMjM2Ljc4MTIyLDAgYyAtMy41MDEyLC0wLjAxNjggLTcuMDE2MSwtMC4wMTUzIC0xMC41NDQ5LDAuMDA2IC0zMS42NzY5LDAuMTg5OTIgLTYzLjc1ODcsMS45MzI5OCAtOTUuNzY1Niw1LjIwMzEyIC0xMjcuMjI0NiwxMi45OTg2OSAtMjQ2Ljc4OTUsNDkuNDI4ODggLTMzMi4zOTI2LDEwMS4yNzUzOSAtODUuNjAzMSw1MS44NDY1MSAtMTMwLjIzMjIsMTE0Ljg2MjM0IC0xMjQuMDY4NCwxNzUuMTg1NTUgNC42NzksNDUuMDI3MDkgMzcuNDQ4LDg2LjE0ODkyIDk0LjE1NDMsMTE4LjE1NDMgMzMuNzk1NCwtNi44MjcyIDY2LjQ0MzYsLTE1LjYzMDI4IDk4Ljc5MywtMjUuNjcxODggLTUyLjY3MTMsLTI1LjUwMjkxIC04My40MzY0LC02MC4yMDI0NSAtODcuNTQxLC05OC43MzYzMyAtOS44OTk0LC05Ni45MDI2MSAxNDcuNzUxLC0xOTIuMzg0NjYgMzUyLjEyMywtMjEzLjI2NTYyIDI0LjY5MDYsLTIuNTIyNiA0OS40Mzg5LC0zLjg2NzE5IDczLjg3NSwtNC4wMTM2NyAxNzQuMjE4OSwtMS4wNDQ4NSAzMDUuNTc0LDU4LjE5ODA5IDMxNC4xMDE2LDE0MS42NjQwNiA5Ljg5OTUsOTYuOTAyNjIgLTE0Ny43NTEsMTkyLjM4NDY3IC0zNTIuMTIzLDIxMy4yNjU2MyAtMTUuODk0MywxLjU1MTc3IC0zMS44MTIsMi42MTU4MiAtNDcuNjU0MywzLjE4NTU0IC00MC4yMjMyLDE2LjM3OTEgLTc2LjY2NzMsMzEuNzI4IC0xMDkuNTMxMyw0Ni42MzA4NCA1My44NjgsMy44NzAxIDExMC4zMTMxLDIuOTMwNiAxNjYuNzQwMiwtMi43NzU0IEMgMTcwOS43ODEyLDk5Ny4yNzY2OSAxODI5LjM0NjEsOTYwLjg0NjUyIDE5MTQuOTQ5Miw5MDkgMjAwMC41NTIzLDg1Ny4xNTM0OSAyMDQ1LjE4MTQsNzk0LjEzNzY3IDIwMzkuMDE3Niw3MzMuODE0NDUgMjAyOC4xMzU4LDYyNy4zMDc0OSAxODYyLjk2ODgsNTUxLjIyNzg4IDE2NDIuMzkwNiw1NTAuMTY3OTcgWiBNIDQ5Ni4xNjIxMSw4MTcuMzI0MjIgYyAtMjEuMzkzNzksLTAuMTM4MDEgLTQyLjYzOTEyLDEuNjI4OTEgLTQ2LjMyODEzLDUuMjI2NTYgLTkuOTQ3MjYsOS43MDA4IC0xMS4zMzM5OCwzMi43MTQ2NiAtMTEuMzMzOTgsNDUuMDM1MTYgMCwxOC44MTEyNiAxNC44MTU2MywzNC45MTE3IDM1LjgyNDIyLDQxLjU5NzY1IGwgLTAuMDkxOCwwLjAzMzIgYyAxNzguMDg3NjUsNzAuOTI0OCAyOTQuMTAxMTQsMTE5LjkxMzAxIDM3MS42MDc0MiwxOTQuNzY1NjEgLTM3Ljk3NjQ1LDUzLjczMzUgLTEwNi4zMDU5Miw4Ni41MTI2IC0xODEuMDE1NjIsMTE5LjMwMjggLTEuMDMxNjksLTIuNzM1MSAtMi40NDM5NCwtNS4xNzMxIC00LjQxMDE2LC03LjAyMTUgLTYuMDI1MzcsLTUuNjY0MyAtNjAuNjM0MzEsLTUuNzUyNSAtNjUuODI2MTcsLTAuNjg5NSAtNi45OTk1OCw2LjgyNjIgLTcuOTc0NjEsMjMuMDE5OSAtNy45NzQ2MSwzMS42ODk1IDAsMTcuNDUzNiAxOC4xMTU2NywzMS42MDM1IDQwLjQ2Mjg5LDMxLjYwMzUgOC40ODA3NSwwIDE2LjM0ODQ2LC0yLjA0MDcgMjIuODUxNTYsLTUuNTIzNCA3My4zMDAwNiwtMjguNzgzNyAxNTEuNTI1MDcsLTY0LjI2IDI3MS4yNTk3NywtNzcuNTY2NSBsIDAsLTMuMDkxOCBjIDAuMDAyLC0yMC4zMzg3IDE5LjEyNDQ2LC0zNC41OTQgMzEuNTYwMjYsLTQ0LjE0OTYgbCAxMC4wMTk1NCwtNy42OTg5IDAsNTEuODQ4NSAtOS4yMTU5NywwIDAsNTAuODc3IDE0OC42MDA5NywwIGMgMjUuMjQ5NiwwIDQ5LjQ5NzcsMTguMzkyOCA2MS4xNzc4LDMzLjAwNzggMTEuNjgsMTQuNjE0OCAyMS45MDk3LDMzLjgxMTEgMjIuMjQ0MSw1NC4xNjk5IGwgMC43NzE1LDQ2LjkxNiAtNC40NzA3LC0xNC4wNTA3IC0yNC4wNTA4LDAgMCwxNi43NzczIGMgLTIyLjA1MDgsLTU1LjAwMjkgLTc1LjMzNTMsLTkxLjA2NzcgLTEzNC41OTM3LC05MS4wOTc2IC04MC4xMjg3NSwwIC0xNDUuMDg1OTQsNjQuOTU3MiAtMTQ1LjA4NTk3LDE0NS4wODU5IDNlLTUsODAuMTI4NyA2NC45NTcyMiwxNDUuMDg1OSAxNDUuMDg1OTcsMTQ1LjA4NTkgNTkuMjg4OCwtMC4wNSAxMTIuNTgxOSwtMzYuMTY5NCAxMzQuNTkzNywtOTEuMjIwNyBsIDAsMTAuNDIzOSAyNC4wNTA4LDAgNi40NzQ2LC0yMy4xMjUgMCwtMy4wMTU3IDI2Ljg5NjUsLTAuMDU1IDMuNTM1MSwtMjMuODk2NCAtMi4xNjQsLTEyMC43OTY5IGMgLTAuNzg3MSwtMzkuNzEwMiAtOC43MTkxLC02Ni45MzE0IC0yNy41NzYyLC04OS42Nzc3IC0yMS44MTQ5LC0yNi4zMTQ0IC03NS45ODgyLC00NC45NzcgLTEwMy43NzM3LC00NS4zODg3IGwgMCwtNTIuMTg4NCAzMy4yMDczLDE2LjUzNiBjIDM2LjE0OTIsNC44NTQ1IDY5LjgxODcsMjQuMzY4IDk1LjQwODIsNTMuNDQxNCA3My43MzU1LDE2LjkyOCAxMzAuMzA3Myw0MS42OTExIDE4NC4xODk1LDYyLjg0OTcgNi41MDMxLDMuNDgyNSAxNC4zNzA4LDUuNTIzNCAyMi44NTE1LDUuNTIzNCAyMi4zNDcyLDAgNDAuNDYyOSwtMTQuMTQ5OSA0MC40NjI5LC0zMS42MDM1IDAsLTguNjY5NiAtMC45NzUsLTI0Ljg2MzMgLTcuOTc0NiwtMzEuNjg5NSAtNS4xOTE4LC01LjA2MyAtNTkuODAwOSwtNC45NzQ4IC02NS44MjYyLDAuNjg5NSAtMS45NjYyLDEuODQ4NCAtMy4zNzg0LDQuMjg2NCAtNC40MTAxLDcuMDIxNSAtNzQuNzEwMiwtMzIuNzkwNCAtMTQzLjAzOSwtNjUuNTY5IC0xODEuMDE1NiwtMTE5LjMwMjggNzcuNTA2MywtNzQuODUyNiAxOTMuNTE5OCwtMTIzLjg0MDgxIDM3MS42MDc0LC0xOTQuNzY1NjEgbCAtMC4wOTIsLTAuMDMzMiBjIDIxLjAwODYsLTYuNjg1OTUgMzUuODI0MiwtMjIuNzg2MzkgMzUuODI0MiwtNDEuNTk3NjUgMCwtMTIuMzIwNSAtMS4zODY3LC0zNS4zMzQzNiAtMTEuMzM0LC00NS4wMzUxNiAtNy4zNzgsLTcuMTk1MyAtODQuOTg0NCwtNy4wNjg5MyAtOTMuNTQ2OSwwLjk4MDQ3IC0xMC41MzMzLDkuOTAyMSAtMTAuMTI1LDMxLjUxMjM5IC0xMC4xMjUsNDQuMDU0NjkgMCw1LjE3OTI4IDEuMTM3NywxMC4xNDc5MiAzLjIwMzIsMTQuNzc3MzQgLTE1Ni41MTQ5LDUzLjQzMDIyIC0yODguOTYwMiwxMTcuNjc1ODIgLTQ3Mi4wNjI1LDExNy42NzU4MiBsIC0zLjI2OTYsMCBjIC0xODMuMTAyMTksMCAtMzE1LjU0NzU3LC02NC4yNDU2IC00NzIuMDYyNDcsLTExNy42NzU4MiAyLjA2NTQ0LC00LjYyOTQyIDMuMjAzMTMsLTkuNTk4MDYgMy4yMDMxMywtMTQuNzc3MzQgMCwtMTIuNTQyMyAwLjQwODMzLC0zNC4xNTI1OSAtMTAuMTI1LC00NC4wNTQ2OSAtNC4yODEyNywtNC4wMjQ3IC0yNS44MjQ5NiwtNi4wNjkwMiAtNDcuMjE4NzUsLTYuMjA3MDMgeiBtIDgyLjkyNTc4LDI0MC4zMzc4OCBjIC0xNzMuNDQ1MjgsLTAuMTMyMyAtMzA1LjkyNzIsNDYuNTg2MyAtMzA5LjQwMDM5LDExMC40MDgyIC0zLjg1MzQsNzAuODM5NCAxNTEuODY0NjYsMTM2LjkwODggMzQ3LjgwNjY0LDE0Ny41NzAzIDEyNy45ODc3LDYuODczMiAyNDcuMjc2MTksLTExLjcxNCAzMTIuMTY2MDIsLTQ4LjY0MDYgLTUuNDYxODQsLTYuNTkwNiAtOC40NTc2NiwtMTQuODc3OCAtOC40NzI2NiwtMjMuNDM3NSBsIDAsLTEyLjY1MDQgYyAtMTEuOTE2NDMsMS4zNjczIC0yMy40MTA5NywyLjk1MDEgLTM0LjQ4MDQ3LDQuNzQ0MSAtMjkuODU4MTMsMjguODk4NiAtOTcuOTQ4OTIsNDguOTc1NSAtMTgzLjE1NDMsNTQuMDA0IC0xMy4xNjYwNCw1LjIzNjggLTI2LjE1OTksMTAuNDc5MSAtMzkuMTU4MiwxNS41OTU3IC0xMS4zMzM1Myw1LjY1MTQgLTI0LjAzMjY5LDguNjA5MyAtMzcuMzE4MzYsOC42MDkzIC0xOC41NjA3NSwwIC0zNi4wMjc3NSwtNS42Mzg2IC01MC4xNTYyNSwtMTYuNjczOCAtNC41MzgwNCwtMy41NDQ1IC04Ljc2NTI0LC03LjgyMDkgLTEyLjQyMTg3LC0xMi42NzM4IC0xMjguMTkxMTUsLTE2LjYwODIgLTIxOC4zNDk3MywtNjIuNTg2MiAtMjE1LjkxNDA3LC0xMTAuMTA5NCAyLjgwMTE1LC01MS40OTMzIDExMy4wNDgzLC04OC43NDIxIDI1NS4wNDY4OCwtODYuMTcxOSA5LjIxNzg1LDAuMTY3IDE4LjQ2NzA0LDAuNTAyNyAyNy43MTI4OSwxLjAwNTkgNTYuMDIzODcsMy4wODcyIDExMC4zNjc1NSwxMi4yMzU2IDE1NS44NzMwNSwyNi4yNDAyIDMuMjMyMTgsLTIuNjkyNSA2LjMzNjk5LC01LjQyMzIgOS4yOTQ5MiwtOC4yMDEyIC0xNC45MDU5NywtMTEuOTc5NyAtMzEuMzY5NzgsLTIzLjQ0MzQgLTQ5LjUwMzkxLC0zNC42NjQgLTM3LjAxNDQ1LC02Ljc0NDQgLTc2LjA2OTQ4LC0xMS4zMTA0IC0xMTUuNTU0NjksLTEzLjUwOTggLTExLjgyODk2LC0wLjY0MzIgLTIzLjY2MjEsLTEuMDcyMSAtMzUuNDU1MDcsLTEuMjg1MSAtNS42NzczMSwtMC4xMDI4IC0xMS4zMTUxNSwtMC4xNTU5IC0xNi45MTAxNiwtMC4xNjAyIHogbSA4ODUuNDE2MDEsMC4wMTQgYyAtNC4xNTk1LDAuMDIyIC04LjMyNzMsMC4wNjkgLTEyLjUwMTksMC4xNDQ1IC0xMS43OTMxLDAuMjEzNyAtMjMuNjI2MiwwLjY0MzMgLTM1LjQ1NTEsMS4yODcxIC0zOS40NzY5LDIuMTk2MyAtNzguNTI1Miw2Ljc1ODQgLTExNS41MzUyLDEzLjQ5ODEgLTE4LjE0MTgsMTEuMjI0NCAtMzQuNjEyMSwyMi42OTE2IC00OS41MjM0LDM0LjY3NTcgMi45MjQ4LDIuNzQ2OSA1Ljk5MjQsNS40NDgxIDkuMTg1NSw4LjExMTQgNDUuNTY2NiwtMTMuOTgxMyA5OS45NDksLTIzLjA5ODUgMTU1Ljk4MjQsLTI2LjE1MDQgOS4yNDYsLTAuNTAzMiAxOC40OTUsLTAuODM4OSAyNy43MTI5LC0xLjAwNTkgMTQxLjk5ODYsLTIuNTcwMiAyNTIuMjQ1OCwzNC42Nzg2IDI1NS4wNDY5LDg2LjE3MTkgMi41NjQ5LDQ3LjU2NDIgLTg3LjY2Myw5My42MDU4IC0yMTUuOTkyMiwxMTAuMjE2OCAtMy42MzgzLDQuODA5MyAtNy44Mzg3LDkuMDQ3NyAtMTIuMzQzNywxMi41NjY0IC0xNC4xMjg1LDExLjAzNTIgLTMxLjU5NTUsMTYuNjczOCAtNTAuMTU2MywxNi42NzM4IC0xMy4yODU2LDAgLTI1Ljk4NDgsLTIuOTU3OSAtMzcuMzE4MywtOC42MDkzIC0xMy4wOTQ1LC01LjE1NDUgLTI2LjE4MjUsLTEwLjQzNzUgLTM5LjQ0OTMsLTE1LjcxMjkgLTM1LjM5MzMsLTIuMDk2NyAtNjguMzU2MywtNi44Mjk3IC05Ni45NTg5LC0xMy45MjE5IDIuNTIwMSwxMC4zMDk2IDQuMjI5MSwyMS4xMTExIDUuMjI0NiwzMi4zNTc0IDU0LjQ0MzUsOC4zNTQxIDExNS44NTksMTAuOTk2NSAxNzguMDg0LDcuNjYyMSAxOTUuOTQyLC0xMC42NjE1IDM1MS42NiwtNzYuNzMwOSAzNDcuODA2NiwtMTQ3LjU3MDMgLTMuMzkzOSwtNjIuNDI4MyAtMTMwLjYxNjMsLTEwOS4wMjY0IC0zMDEuMzU3NCwtMTEwLjM3ODkgLTQuMTQwNSwtMC4wMzMgLTguMjkxNywtMC4wMzcgLTEyLjQ1MTIsLTAuMDE2IHogbSAtNDQxLjI3MzQsMjUzLjcxNjggYyA2Ny45MTk0LC01ZS00IDEyMi45NzksNTUuMDU5MSAxMjIuOTc4NSwxMjIuOTc4NSAtNmUtNCw2Ny45MTg2IC01NS4wNTk5LDEyMi45NzcxIC0xMjIuOTc4NSwxMjIuOTc2NiAtNjcuOTE3ODYsLTZlLTQgLTEyMi45NzYwMywtNTUuMDU4NyAtMTIyLjk3NjU5LC0xMjIuOTc2NiAtNC45ZS00LC02Ny45MTg2IDU1LjA1Nzk4LC0xMjIuOTc3OSAxMjIuOTc2NTksLTEyMi45Nzg1IHogbSAwLDI0LjgzMiBjIC01NC4yMDQzNywzZS00IC05OC4xNDUzMSw0My45NDIxIC05OC4xNDQ1Niw5OC4xNDY1IDMuNWUtNCw1NC4yMDM2IDQzLjk0MDk3LDk4LjE0NDIgOTguMTQ0NTYsOTguMTQ0NSA1NC4yMDM2LC00ZS00IDk4LjE0NDEsLTQzLjk0MDkgOTguMTQ0NSwtOTguMTQ0NSA4ZS00LC01NC4yMDQzIC00My45NDAyLC05OC4xNDYxIC05OC4xNDQ1LC05OC4xNDY1IHogbSAtMS42NzM5LDcuNTg5OSBjIDIxLjMxOTMsMC4xMzkyIDQwLjQ0NDYsOS4zNTYxIDUwLjMwNjcsMjYuNTEzNiAxNi4yODgzLDI4LjMzNzggLTIwLjYxMjYsMjguNDU1IC01NS41ODc5LDQ4LjU1ODYgLTM0Ljk3NTMyLDIwLjEwMzggLTU0Ljc4MTk2LDUyLjU4MTkgLTcxLjA3MDMyLDI0LjI0NDIgLTE2LjI4ODM0LC0yOC4zMzc3IC0xLjEzOTMyLC02Ny42MDc0IDMzLjgzNTk0LC04Ny43MTEgMTMuMTE1NzIsLTcuNTM4OCAyNy4xNTc5OCwtMTEuMzEyNyA0MC40NDUyOCwtMTEuNTg5OCAwLjY5MjEsLTAuMDE0IDEuMzgyNiwtMC4wMiAyLjA3MDMsLTAuMDE2IHoiIGlkPSJlbGxpcHNlNDM1NyIgdHJhbnNmb3JtPSJ0cmFuc2xhdGUoMCw1MjA4LjY5MjgpIi8+JiN4YTsgIDwvZz4mI3hhOzwvc3ZnPg==;clipPath=inset(13.68% 0% 12.26% 0%);" parent="1" vertex="1">
          <mxGeometry x="792" y="-18" width="294" height="153.85999999999999" as="geometry" />
        </mxCell>
        <mxCell id="I5mjCQqSu9rGNLek1Kef-29" value="&lt;b style=&quot;text-wrap: nowrap;&quot;&gt;&lt;font style=&quot;font-size: 35px;&quot;&gt;LLM Agent&lt;/font&gt;&lt;/b&gt;" style="rounded=0;whiteSpace=wrap;html=1;absoluteArcSize=1;arcSize=14;strokeWidth=2;fillColor=#FF9933;strokeColor=#d79b00;shadow=1;fontColor=#FFFFFF;" parent="1" vertex="1">
          <mxGeometry x="824.67" y="152" width="225" height="50" as="geometry" />
        </mxCell>
        <mxCell id="I5mjCQqSu9rGNLek1Kef-60" value="" style="rounded=0;whiteSpace=wrap;html=1;fillColor=none;strokeWidth=3;strokeColor=#808080;" parent="1" vertex="1">
          <mxGeometry x="824.34" y="152" width="225.33" height="50" as="geometry" />
        </mxCell>
        <mxCell id="I5mjCQqSu9rGNLek1Kef-22" value="&lt;b style=&quot;font-size: 32px;&quot;&gt;&lt;font color=&quot;#ffffff&quot; style=&quot;font-size: 32px;&quot;&gt;UAV Operator&lt;/font&gt;&lt;/b&gt;" style="rounded=1;whiteSpace=wrap;html=1;absoluteArcSize=1;arcSize=14;strokeWidth=2;strokeColor=#6c8ebf;fillColor=#7EA6E0;shadow=1;fontSize=32;" parent="1" vertex="1">
          <mxGeometry x="1150" y="190" width="240" height="85" as="geometry" />
        </mxCell>
        <mxCell id="I5mjCQqSu9rGNLek1Kef-23" value="&lt;b style=&quot;font-size: 32px; text-wrap: nowrap;&quot;&gt;&lt;font color=&quot;#ffffff&quot; style=&quot;font-size: 32px;&quot;&gt;LLM Agent&lt;/font&gt;&lt;/b&gt;" style="rounded=0;whiteSpace=wrap;html=1;absoluteArcSize=1;arcSize=14;strokeWidth=2;fillColor=#FF9933;strokeColor=#FF9933;shadow=1;fontSize=32;" parent="1" vertex="1">
          <mxGeometry x="1150" y="275" width="240" height="65" as="geometry" />
        </mxCell>
        <mxCell id="NIiBr6VN-mUPk3h2kAaf-10" value="" style="rounded=0;whiteSpace=wrap;html=1;fillColor=none;strokeWidth=3;strokeColor=#808080;" parent="1" vertex="1">
          <mxGeometry x="817.01" y="569" width="240" height="150" as="geometry" />
        </mxCell>
        <mxCell id="NIiBr6VN-mUPk3h2kAaf-11" value="" style="rounded=0;whiteSpace=wrap;html=1;fillColor=none;strokeWidth=3;strokeColor=#808080;" parent="1" vertex="1">
          <mxGeometry x="1150" y="190" width="240" height="150" as="geometry" />
        </mxCell>
        <mxCell id="NIiBr6VN-mUPk3h2kAaf-12" value="" style="rounded=0;whiteSpace=wrap;html=1;fillColor=none;strokeWidth=3;strokeColor=#808080;" parent="1" vertex="1">
          <mxGeometry x="465" y="450" width="240" height="150" as="geometry" />
        </mxCell>
        <mxCell id="I5mjCQqSu9rGNLek1Kef-8" value="&lt;font size=&quot;1&quot; color=&quot;#ffffff&quot;&gt;&lt;b style=&quot;font-size: 31px;&quot;&gt;Counter UAV System&lt;/b&gt;&lt;/font&gt;" style="rounded=1;whiteSpace=wrap;html=1;absoluteArcSize=1;arcSize=14;strokeWidth=2;strokeColor=#6c8ebf;fillColor=#7EA6E0;shadow=1;fontSize=30;" parent="1" vertex="1">
          <mxGeometry x="470" y="193" width="240" height="80" as="geometry" />
        </mxCell>
        <mxCell id="I5mjCQqSu9rGNLek1Kef-9" value="&lt;b style=&quot;text-wrap: nowrap;&quot;&gt;&lt;font style=&quot;font-size: 32px;&quot; color=&quot;#ffffff&quot;&gt;LLM Agent&lt;/font&gt;&lt;/b&gt;" style="rounded=0;whiteSpace=wrap;html=1;absoluteArcSize=1;arcSize=14;strokeWidth=2;fillColor=#FF9933;strokeColor=#d79b00;shadow=1;fontSize=28;" parent="1" vertex="1">
          <mxGeometry x="470" y="273" width="240" height="70" as="geometry" />
        </mxCell>
        <mxCell id="I5mjCQqSu9rGNLek1Kef-55" value="" style="rounded=0;whiteSpace=wrap;html=1;fillColor=none;strokeWidth=11;strokeColor=#00FF00;" parent="1" vertex="1">
          <mxGeometry x="462.5" y="186" width="255" height="164" as="geometry" />
        </mxCell>
        <mxCell id="NIiBr6VN-mUPk3h2kAaf-13" value="" style="rounded=0;whiteSpace=wrap;html=1;fillColor=none;strokeWidth=3;strokeColor=#808080;" parent="1" vertex="1">
          <mxGeometry x="470" y="193" width="240" height="150" as="geometry" />
        </mxCell>
        <mxCell id="NIiBr6VN-mUPk3h2kAaf-15" value="" style="rounded=0;whiteSpace=wrap;html=1;fillColor=none;strokeWidth=3;strokeColor=#808080;" parent="1" vertex="1">
          <mxGeometry x="1150" y="450" width="240" height="150" as="geometry" />
        </mxCell>
      </root>
    </mxGraphModel>
  </diagram>
</mxfile>
